<?xml version="1.0" encoding="UTF-8" standalone="no"?>
<!--part of the rodentia icon theme by sixsixfive released under CC0 (https://creativecommons.org/publicdomain/zero/1.0/) on openclipart-->
<svg xmlns="http://www.w3.org/2000/svg" xmlns:xlink="http://www.w3.org/1999/xlink" viewBox="0 0 48 48">
 <defs id="0">
  <linearGradient id="2">
   <stop id="G" stop-color="#eeeeec"/>
   <stop id="H" offset="1" stop-color="#d3d7cf"/>
  </linearGradient>
  <linearGradient id="3">
   <stop id="I" stop-color="#2e3436"/>
   <stop id="J" offset="1" stop-color="#2e3436" stop-opacity="0"/>
  </linearGradient>
  <linearGradient id="4">
   <stop id="K" stop-color="#fff" stop-opacity="0.8"/>
   <stop id="L" offset="1" stop-color="#fff" stop-opacity="0"/>
  </linearGradient>
  <radialGradient cx="24.377" cy="45.941" r="23.08" id="5" xlink:href="#3" gradientUnits="userSpaceOnUse" gradientTransform="matrix(1,0,0,0.1455399,0,39.255173)"/>
  <radialGradient cx="12.14" cy="8.542" r="19.906" id="6" xlink:href="#2" gradientUnits="userSpaceOnUse"/>
  <linearGradient y1="4.219" x2="0" y2="43.781" id="7" xlink:href="#4" gradientUnits="userSpaceOnUse" gradientTransform="translate(1.179199e-8,-1.4999995)"/>
 </defs>
 <g id="1">
  <path d="m 47.453955,45.941494 c 0,1.853955 -10.338462,3.358613 -23.076924,3.358613 -12.738461,0 -23.076923,-1.504658 -23.076923,-3.358613 0,-1.853955 10.338462,-3.358613 23.076923,-3.358613 12.738462,0 23.076924,1.504658 23.076924,3.358613 z" transform="translate(-0.3770313,-3.2001072)" id="8" opacity="0.8" fill="url(#5)"/>
  <path d="m 9,1.5000005 30,0 c 3.324,0 6,2.676 6,6 L 45,37.5 c 0,3.324 -2.676,6 -6,6 l -30,0 c -3.324,0 -6,-2.676 -6,-6 L 3,7.5000005 c 0,-3.324 2.676,-6 6,-6 z" id="9" fill="#888a85"/>
  <path d="M 9,4.09375 C 6.2608771,4.09375 4.09375,6.2608771 4.09375,9 l 0,30 c 0,2.739123 2.1671271,4.90625 4.90625,4.90625 l 30,0 c 2.739123,0 4.90625,-2.167127 4.90625,-4.90625 l 0,-30 C 43.90625,6.2608771 41.739123,4.09375 39,4.09375 l -30,0 z" transform="translate(1.179199e-8,-1.4999995)" id="A" fill="url(#6)"/>
  <path d="m 9,2.7187505 c -2.6655117,0 -4.78125,2.1157383 -4.78125,4.78125 l 0,29.9999995 c 0,2.665513 2.1157384,4.78125 4.78125,4.78125 l 30,0 c 2.665512,0 4.78125,-2.115737 4.78125,-4.78125 l 0,-29.9999995 c 0,-2.6655116 -2.115738,-4.78125 -4.78125,-4.78125 l -30,0 z m 0,1 30,0 c 2.145718,0 3.78125,1.635532 3.78125,3.78125 l 0,29.9999995 c 0,2.145719 -1.635532,3.78125 -3.78125,3.78125 l -30,0 c -2.145718,0 -3.78125,-1.635531 -3.78125,-3.78125 l 0,-29.9999995 c 0,-2.1457179 1.6355321,-3.78125 3.78125,-3.78125 z" id="B" opacity="0.8" fill="url(#7)"/>
  <a transform="matrix(0.2060633,0,0,0.2060633,21.698933,4.9473999)" id="C" fill="#fff">
   <path d="m 40.23,5.78 c -0.11,0.48 4.28,3.07 3.42,7.83 l 0,0.78 c -3.99,0.78 -7.27,1.43 -9.84,1.96 l -2.99,0.39 c -0.0041,0.26 0.14,0.78 0.42,1.56 0.289018,0.26 0.86,0.78 1.72,1.57 2.939094,1.153569 6.132,2.34 9.41,2.34 l 1.282717,0.0029 0,3.129435 C 41.655831,25.863976 42.57,25.32 36.81,27.3 c -5.732909,1.962034 -21.240882,4.545529 -31.6677393,7.430686 -0.3200866,0.412893 0,0.782333 0,0.782333 l 6.8463043,5.476536 c 1.956607,-0.06838 2.068025,-0.162882 3.423152,-0.782334 1.141028,-0.782343 3.137863,-1.564686 5.990515,-2.347101 l 22.250485,-7.041293 0,3.911859 C 38.627282,36.974502 33.052397,37.496403 27.82064,39.03 l -2.139469,0.394806 0,0.782415 C 30.711452,44.67402 36.783623,43.123626 42.796929,41.77 l 0,0.784313 c -2.591729,2.671524 -5.447837,4.073697 -8.985773,5.085297 -1.541124,0.470565 -3.362871,0.193014 -4.706833,0.391167 -3.085522,0.455013 0.841089,3.649859 2.567363,5.085368 l 1.711576,1.173582 C 34.436445,54.719891 38.489692,53.4 41.09,52.72 l 1.706929,-0.777374 C 39.783111,58.980347 28.880521,60.29 21.83,60.94 c -1.99283,0.11392 -3.137787,0.260584 -3.423027,0.782116 L 17.98,62.11 l 0,0.79 c 2.48,2.49 7.89,4.56 10.27,3.52 l 5.13,-1.959616 c -1.71,2.347101 -2.70677,4.303025 -2.99,5.867702 -0.51,6.383592 5.329546,19.551014 6.42,19.951914 0.98,0.358376 11.250194,-2.844877 17.11,-3.13 2.07,2.276616 4.433326,7.756356 5.14,7.82 2.78,0.262679 3.920797,-1.375115 5.55952,-2.74 C 69.33,87.600165 70.5602,81.096028 74.033189,75.8 75.03,74.23846 75.917823,72.895957 76.172661,71.110429 75.85,66.109742 71.593793,62.323568 66.331095,61.72 56,60.721532 45.03278,64.020104 36.378519,69.154576 L 35.094838,69.94 34.24,69.936919 C 35.094797,67.329089 35.665321,65.76434 35.95,65.24 l 0.86,-1.561959 C 47.71431,60.554708 53.616781,57.72 70.18,57.42 l 5.99,0 0.86,-0.783253 C 76.785013,53.865296 74.221079,52.111241 71.465824,51.55 L 50.14,53.733815 c 0.929488,-2.165166 1.785276,-3.095135 2.07,-3.353815 0.57,-0.784465 1.56948,-1.306006 2.995853,-1.566808 4.204147,-1.559025 8.846123,-1.84059 13.26471,-2.738268 L 69.33,45.683757 C 69.108541,43.666965 68.43005,42.642864 66.33,42.16 63.68,41.501574 60.884325,41.788944 58.201112,42.1631 L 55.63,42.55 c 2.78,-2.827258 6.333129,-4.81102 9.845308,-6.65 -0.0053,0.0042 0.807928,-0.72673 0.27306,-1.8 C 65.21,33.021793 64.641758,32.703922 63.335838,31.6 63.91,30.558097 64.476819,29.775754 65.047414,29.25 72.25,24.579001 80.91311,24.662485 91.576846,27.3 93.32,27.907705 93.907037,27.90622 95,26.91 93.23,19.684198 82.224003,19.869031 76.172661,21.82 75.14,21.987019 74.236452,22.212928 73.177396,22.21 L 71.89,22.21 C 72.8,20.833597 72.838062,19.717678 72.321609,18.3 68.22,12.792764 61.177375,11.568512 54.350066,12.433367 L 53.07,12.82 C 52.84235,11.341784 54.613306,9.46 53.92,8.91 50.34,6.07 42.01,4.96 41.51,5 41,5.04 40.34,5.31 40.23,5.78 z m 11.98,14.09 c 1.997374,-1.829651 3.14,-2.74 3.42,-2.74 2.204178,-1.34731 4.49,-1.52 6.42,0 l 0.43005,0.3887 C 62.46,19.18 61.88,20.75 61.2,22.21 l -0.43,0.7852 C 57.345259,23.26 54.92,23.65 53.49,24.17 l -2.14,0.39 0.85,-4.69 0.01,0 z m 5.99,7.82 c -1.12,2.2 -2.78,3.09 -5.39,4.3 l -1.46,0.39 0,-3.13 6.85,-1.56 z m 6.85,39.12 c 4.35,3.54 -1.53,12.85 -5.14,17.99 -1.07,2.49 -2.59,0.75 -4.28,-0.39 -2.34,-1.42 -4.82,-1.12 -7.7,-0.39 3.23,-4.3 2.65,-5.8 7.55,-6.25 4.78,-0.44 2.14,-2.48 1.15,-3.06 -0.96,-0.56 -16.41,0.72 -17.26,1.09 -2.86,1.99 3.59,3.36 5.14,3.52 l 0.85,0.79 -5.99,4.69 -0.85,0 c -2.46,-2.2 -2.24,-6.23 -2.57,-9.39 -0.18,-2.27 2.35,-3.11 4.28,-3.91 1.25,-0.57 2.64,-1.06 4.28,-1.56 4.79,-0.69 19.12,-4.29 20.54,-3.13 z" id="M"/>
  </a>
  <a transform="matrix(0.2060633,0,0,0.2060633,21.698933,3.9473526)" id="D" fill="#555753">
   <path d="m 40.23,5.78 c -0.11,0.48 4.28,3.07 3.42,7.83 l 0,0.78 c -3.99,0.78 -7.27,1.43 -9.84,1.96 l -2.99,0.39 c -0.0041,0.26 0.14,0.78 0.42,1.56 0.289018,0.26 0.86,0.78 1.72,1.57 2.939094,1.153569 6.132,2.34 9.41,2.34 l 1.282717,0.0029 0,3.129435 C 41.655831,25.863976 42.57,25.32 36.81,27.3 c -5.732909,1.962034 -21.240882,4.545529 -31.6677393,7.430686 -0.3200866,0.412893 0,0.782333 0,0.782333 l 6.8463043,5.476536 c 1.956607,-0.06838 2.068025,-0.162882 3.423152,-0.782334 1.141028,-0.782343 3.137863,-1.564686 5.990515,-2.347101 l 22.250485,-7.041293 0,3.911859 C 38.627282,36.974502 33.052397,37.496403 27.82064,39.03 l -2.139469,0.394806 0,0.782415 C 30.711452,44.67402 36.783623,43.123626 42.796929,41.77 l 0,0.784313 c -2.591729,2.671524 -5.447837,4.073697 -8.985773,5.085297 -1.541124,0.470565 -3.362871,0.193014 -4.706833,0.391167 -3.085522,0.455013 0.841089,3.649859 2.567363,5.085368 l 1.711576,1.173582 C 34.436445,54.719891 38.489692,53.4 41.09,52.72 l 1.706929,-0.777374 C 39.783111,58.980347 28.880521,60.29 21.83,60.94 c -1.99283,0.11392 -3.137787,0.260584 -3.423027,0.782116 L 17.98,62.11 l 0,0.79 c 2.48,2.49 7.89,4.56 10.27,3.52 l 5.13,-1.959616 c -1.71,2.347101 -2.70677,4.303025 -2.99,5.867702 -0.51,6.383592 5.329546,19.551014 6.42,19.951914 0.98,0.358376 11.250194,-2.844877 17.11,-3.13 2.07,2.276616 4.433326,7.756356 5.14,7.82 2.78,0.262679 3.920797,-1.375115 5.55952,-2.74 C 69.33,87.600165 70.5602,81.096028 74.033189,75.8 75.03,74.23846 75.917823,72.895957 76.172661,71.110429 75.85,66.109742 71.593793,62.323568 66.331095,61.72 56,60.721532 45.03278,64.020104 36.378519,69.154576 L 35.094838,69.94 34.24,69.936919 C 35.094797,67.329089 35.665321,65.76434 35.95,65.24 l 0.86,-1.561959 C 47.71431,60.554708 53.616781,57.72 70.18,57.42 l 5.99,0 0.86,-0.783253 C 76.785013,53.865296 74.221079,52.111241 71.465824,51.55 L 50.14,53.733815 c 0.929488,-2.165166 1.785276,-3.095135 2.07,-3.353815 0.57,-0.784465 1.56948,-1.306006 2.995853,-1.566808 4.204147,-1.559025 8.846123,-1.84059 13.26471,-2.738268 L 69.33,45.683757 C 69.108541,43.666965 68.43005,42.642864 66.33,42.16 63.68,41.501574 60.884325,41.788944 58.201112,42.1631 L 55.63,42.55 c 2.78,-2.827258 6.333129,-4.81102 9.845308,-6.65 -0.0053,0.0042 0.807928,-0.72673 0.27306,-1.8 C 65.21,33.021793 64.641758,32.703922 63.335838,31.6 63.91,30.558097 64.476819,29.775754 65.047414,29.25 72.25,24.579001 80.91311,24.662485 91.576846,27.3 93.32,27.907705 93.907037,27.90622 95,26.91 93.23,19.684198 82.224003,19.869031 76.172661,21.82 75.14,21.987019 74.236452,22.212928 73.177396,22.21 L 71.89,22.21 C 72.8,20.833597 72.838062,19.717678 72.321609,18.3 68.22,12.792764 61.177375,11.568512 54.350066,12.433367 L 53.07,12.82 C 52.84235,11.341784 54.613306,9.46 53.92,8.91 50.34,6.07 42.01,4.96 41.51,5 41,5.04 40.34,5.31 40.23,5.78 z m 11.98,14.09 c 1.997374,-1.829651 3.14,-2.74 3.42,-2.74 2.204178,-1.34731 4.49,-1.52 6.42,0 l 0.43005,0.3887 C 62.46,19.18 61.88,20.75 61.2,22.21 l -0.43,0.7852 C 57.345259,23.26 54.92,23.65 53.49,24.17 l -2.14,0.39 0.85,-4.69 0.01,0 z m 5.99,7.82 c -1.12,2.2 -2.78,3.09 -5.39,4.3 l -1.46,0.39 0,-3.13 6.85,-1.56 z m 6.85,39.12 c 4.35,3.54 -1.53,12.85 -5.14,17.99 -1.07,2.49 -2.59,0.75 -4.28,-0.39 -2.34,-1.42 -4.82,-1.12 -7.7,-0.39 3.23,-4.3 2.65,-5.8 7.55,-6.25 4.78,-0.44 2.14,-2.48 1.15,-3.06 -0.96,-0.56 -16.41,0.72 -17.26,1.09 -2.86,1.99 3.59,3.36 5.14,3.52 l 0.85,0.79 -5.99,4.69 -0.85,0 c -2.46,-2.2 -2.24,-6.23 -2.57,-9.39 -0.18,-2.27 2.35,-3.11 4.28,-3.91 1.25,-0.57 2.64,-1.06 4.28,-1.56 4.79,-0.69 19.12,-4.29 20.54,-3.13 z" id="N"/>
  </a>
  <path d="m 15.477324,29.721439 4.519207,0 -2.502493,-6.815611 -2.590815,6.462318 c -7e-6,0.147214 0.02943,0.245351 0.08832,0.294411 0.06869,0.03926 0.230615,0.05889 0.485778,0.05888 m -3.164916,6.300392 c -0.107955,0.294413 -0.166838,0.544662 -0.176647,0.750748 -4e-6,0.206089 0.122667,0.363108 0.368014,0.471057 0.245337,0.107952 0.652605,0.161927 1.221805,0.161926 0.245336,10e-7 0.412169,0.02454 0.500498,0.0736 0.08832,0.03925 0.132478,0.117765 0.132485,0.235528 l 0,0.603543 -0.147205,0.117764 c -1.84498,-0.03925 -3.007901,-0.05888 -3.488769,-0.05888 l -2.5760949,0.05888 -0.2355287,-0.08832 0,-0.632984 c -1e-7,-0.09814 0.029441,-0.171738 0.088323,-0.220808 0.058882,-0.04907 0.1177641,-0.0736 0.1766465,-0.0736 0.068696,-0.0098 0.1815529,-0.01472 0.3385725,-0.01472 0.3434783,10e-7 0.7065847,-0.147204 1.0893201,-0.441616 0.382732,-0.294409 0.6918635,-0.726211 0.9273945,-1.295408 L 17.25851,19.505383 c 0.127568,-0.323833 0.314028,-0.559362 0.55938,-0.706586 0.255146,-0.157 0.490675,-0.235509 0.706586,-0.235529 0.66732,2e-5 1.11875,0.314058 1.35429,0.942115 l 6.094305,16.163155 c 0.23551,0.598638 0.471039,1.040253 0.706586,1.324849 0.235509,0.274785 0.52992,0.412176 0.883232,0.412175 l 0.853792,0 c 0.206067,10e-7 0.328738,0.01963 0.368013,0.05888 0.04905,0.03926 0.07358,0.122672 0.0736,0.250249 l 0,0.603543 -0.147205,0.117764 c -1.923503,-0.03925 -3.267978,-0.05888 -4.033429,-0.05888 l -4.34256,0.05888 -0.250249,-0.147205 0,-0.574102 c -1.2e-5,-0.206086 0.264957,-0.30913 0.794909,-0.309131 l 0.80963,0 c 0.500484,10e-7 0.750733,-0.260062 0.750748,-0.780189 -1.5e-5,-0.215899 -0.01964,-0.358197 -0.05888,-0.426895 l -1.869509,-5.063867 -5.549645,0 c -0.314045,7e-6 -0.525039,0.02454 -0.632983,0.0736 -0.107957,0.03926 -0.206094,0.157026 -0.294411,0.353293 l -1.722303,4.460324" id="E" fill="#fff"/>
  <path d="m 15.477324,28.721313 4.519207,0 -2.502493,-6.815611 -2.590815,6.462318 c -7e-6,0.147214 0.02943,0.245351 0.08832,0.294411 0.06869,0.03926 0.230615,0.05889 0.485778,0.05888 m -3.164916,6.300392 c -0.107955,0.294413 -0.166838,0.544662 -0.176647,0.750748 -4e-6,0.206089 0.122667,0.363108 0.368014,0.471057 0.245337,0.107952 0.652605,0.161927 1.221805,0.161926 0.245336,10e-7 0.412169,0.02454 0.500498,0.0736 0.08832,0.03926 0.132478,0.117765 0.132485,0.235529 l 0,0.603542 -0.147205,0.117764 c -1.84498,-0.03925 -3.007901,-0.05888 -3.488769,-0.05888 l -2.5760949,0.05888 -0.2355287,-0.08832 0,-0.632983 c -1e-7,-0.09814 0.029441,-0.171739 0.088323,-0.220809 0.058882,-0.04907 0.1177641,-0.0736 0.1766465,-0.0736 0.068696,-0.0098 0.1815529,-0.01472 0.3385725,-0.01472 0.3434783,10e-7 0.7065847,-0.147204 1.0893201,-0.441616 0.382732,-0.294409 0.6918635,-0.726211 0.9273945,-1.295408 L 17.25851,18.505257 c 0.127568,-0.323833 0.314028,-0.559361 0.55938,-0.706586 0.255146,-0.157 0.490675,-0.235509 0.706586,-0.235529 0.66732,2e-5 1.11875,0.314058 1.35429,0.942115 l 6.094305,16.163155 c 0.23551,0.598638 0.471039,1.040254 0.706586,1.324849 0.235509,0.274785 0.52992,0.412176 0.883232,0.412175 l 0.853792,0 c 0.206067,10e-7 0.328738,0.01963 0.368013,0.05888 0.04905,0.03926 0.07358,0.122672 0.0736,0.25025 l 0,0.603542 -0.147205,0.117764 c -1.923503,-0.03925 -3.267978,-0.05888 -4.033429,-0.05888 l -4.34256,0.05888 -0.250249,-0.147205 0,-0.574101 c -1.2e-5,-0.206087 0.264957,-0.309131 0.794909,-0.309132 l 0.80963,0 c 0.500484,10e-7 0.750733,-0.260061 0.750748,-0.780189 -1.5e-5,-0.215899 -0.01964,-0.358197 -0.05888,-0.426895 l -1.869509,-5.063867 -5.549645,0 c -0.314045,7e-6 -0.525039,0.02454 -0.632983,0.0736 -0.107957,0.03926 -0.206094,0.157026 -0.294411,0.353293 L 12.312407,35.0217" id="F" fill="#555753"/>
 </g>
</svg>
